<?xml version="1.0" encoding="utf-8"?>
<!-- Generator: Adobe Illustrator 16.0.0, SVG Export Plug-In . SVG Version: 6.00 Build 0)  -->
<!DOCTYPE svg PUBLIC "-//W3C//DTD SVG 1.1//EN" "http://www.w3.org/Graphics/SVG/1.1/DTD/svg11.dtd">
<svg version="1.1" id="Capa_1" xmlns="http://www.w3.org/2000/svg" xmlns:xlink="http://www.w3.org/1999/xlink" x="0px" y="0px"
	 width="792px" height="311px" viewBox="0 0 792 311" enable-background="new 0 0 792 311" xml:space="preserve">
<g>
	<g>
		<g>
			<path fill="#415419" d="M725.108,243.686v-0.05c-0.003-4.856,3.921-8.942,8.874-8.948c5.005-0.006,8.894,4.024,8.899,8.875v0.056
				c0.003,4.85-3.931,8.931-8.88,8.937C729.002,252.562,725.115,248.537,725.108,243.686z M741.857,243.618v-0.056
				c-0.006-4.335-3.382-7.912-7.875-7.906c-4.446,0-7.861,3.633-7.856,7.977v0.053c0.004,4.336,3.38,7.907,7.872,7.9
				C738.441,251.586,741.86,247.957,741.857,243.618z M730.104,238.774h4.489c2.302-0.007,3.941,0.962,3.943,3.16
				c0.004,1.484-0.76,2.503-1.934,2.957l2.248,3.272l-3.068,0.007l-1.895-2.808h-1.12l0.003,2.808l-2.658,0.006L730.104,238.774z
				 M734.443,243.264c0.924,0,1.434-0.459,1.434-1.123c0-0.715-0.516-1.125-1.434-1.125l-1.678,0.004v2.251L734.443,243.264z"/>
		</g>
		<g>
			<g>
				
					<radialGradient id="SVGID_1_" cx="450.5439" cy="437.8447" r="245.1787" gradientTransform="matrix(0.9962 0.0868 -0.0868 0.9962 -5.9111 -294.4839)" gradientUnits="userSpaceOnUse">
					<stop  offset="0.0074" style="stop-color:#94B741"/>
					<stop  offset="0.5103" style="stop-color:#86A038"/>
					<stop  offset="1" style="stop-color:#597028"/>
				</radialGradient>
				<path fill-rule="evenodd" clip-rule="evenodd" fill="url(#SVGID_1_)" d="M587.524,61.535
					c-6.344,12.303-19.314,22.286-28.978,22.296c-9.668,0.009-12.369-9.957-6.016-22.26c6.329-12.303,19.309-22.285,28.984-22.294
					C591.173,39.266,593.865,49.231,587.524,61.535z"/>
				
					<radialGradient id="SVGID_2_" cx="450.5537" cy="437.8398" r="245.1702" gradientTransform="matrix(0.9962 0.0868 -0.0868 0.9962 -5.9111 -294.4839)" gradientUnits="userSpaceOnUse">
					<stop  offset="0.0074" style="stop-color:#94B741"/>
					<stop  offset="0.5103" style="stop-color:#86A038"/>
					<stop  offset="1" style="stop-color:#597028"/>
				</radialGradient>
				<path fill-rule="evenodd" clip-rule="evenodd" fill="url(#SVGID_2_)" d="M732.896,116.46
					c-30.233,0.031-70.822,31.254-90.643,69.733c-19.843,38.489-11.414,69.653,18.812,69.622
					c30.226-0.031,70.805-31.245,90.642-69.733C771.544,147.603,763.109,116.431,732.896,116.46z M722.104,186.111
					c-19.994,35.584-47.341,64.435-61.106,64.45c-13.762,0.012-8.707-28.816,11.278-64.396
					c19.984-35.579,47.343-64.432,61.104-64.448C747.13,121.705,742.081,150.536,722.104,186.111z"/>
				
					<radialGradient id="SVGID_3_" cx="450.5557" cy="437.8408" r="245.168" gradientTransform="matrix(0.9962 0.0868 -0.0868 0.9962 -5.9111 -294.4839)" gradientUnits="userSpaceOnUse">
					<stop  offset="0.0074" style="stop-color:#94B741"/>
					<stop  offset="0.5103" style="stop-color:#86A038"/>
					<stop  offset="1" style="stop-color:#597028"/>
				</radialGradient>
				<path fill-rule="evenodd" clip-rule="evenodd" fill="url(#SVGID_3_)" d="M637.919,116.558
					c-30.219,0.029-70.806,31.252-90.637,69.731c-19.836,38.489-11.414,69.65,18.807,69.62c16.675-0.016,33.35-7.272,50.943-22.846
					c4.479-3.956,8.379-8.549,7.02-11.772c-0.863-2.059-6.441,2.068-10.378,5.652c-10.104,9.19-25.357,23.693-47.647,23.712
					c-13.753,0.015-8.7-28.812,11.281-64.397c19.988-35.575,47.34-64.429,61.102-64.443c7.732-0.007-10.266,14.779-10.253,26.794
					c0.007,5.895,4.754,8.447,9.325,8.444c10.197-0.009,19.36-9.792,21.538-16.784C662.829,127.988,653.557,116.542,637.919,116.558
					z"/>
				
					<radialGradient id="SVGID_4_" cx="450.5498" cy="437.8486" r="245.1709" gradientTransform="matrix(0.9962 0.0868 -0.0868 0.9962 -5.9111 -294.4839)" gradientUnits="userSpaceOnUse">
					<stop  offset="0.0074" style="stop-color:#94B741"/>
					<stop  offset="0.5103" style="stop-color:#86A038"/>
					<stop  offset="1" style="stop-color:#597028"/>
				</radialGradient>
				<path fill-rule="evenodd" clip-rule="evenodd" fill="url(#SVGID_4_)" d="M326.068,230.371
					c10.346-20.445,82.806-161.083,87.771-170.776c4.974-9.696,5.44-21.086-9.235-21.072c-9.509,0.011-22.958,4.703-31.3,7.787
					c-2.927,1.083-5.365,2.498-4.658,4.038c0.768,1.67,3.901,0.293,5.518-0.135c3.146-0.839,5.16-0.962,6.537-0.964
					c2.888-0.003,4.562,1.181,4.563,3.453c0.003,2.767-2.54,8.266-5.476,13.972c-2.926,5.712-71.291,138.703-77.576,150.997
					c-6.295,12.285-11.403,24.059-11.398,28.996c0.006,4.932,3.238,9.521,14.008,9.508c22.813-0.023,51.514-25.356,72.758-50.627
					l-0.065-5.254c-7.181,8.546-21.137,23.572-34.994,34.462c-9.134,7.179-13.895,10.079-16.72,10.079
					C322.476,244.842,320.792,240.606,326.068,230.371z"/>
				
					<radialGradient id="SVGID_5_" cx="450.5547" cy="437.8467" r="245.1667" gradientTransform="matrix(0.9962 0.0868 -0.0868 0.9962 -5.9111 -294.4839)" gradientUnits="userSpaceOnUse">
					<stop  offset="0.0074" style="stop-color:#94B741"/>
					<stop  offset="0.5103" style="stop-color:#86A038"/>
					<stop  offset="1" style="stop-color:#597028"/>
				</radialGradient>
				<path fill-rule="evenodd" clip-rule="evenodd" fill="url(#SVGID_5_)" d="M467.155,207.752
					c-21.233,25.271-46.805,43.052-70.558,43.076c-11.38,0.014-9.897-19.705,2.269-46.652c0.216-0.279,0.147-0.32,0.409-0.36
					c52.708-5.64,92.033-45.88,92.007-68.98c-0.012-14.197-10.128-18.118-22.791-18.104c-30.233,0.031-70.812,31.253-90.639,69.732
					c-19.837,38.486-11.412,69.651,18.809,69.62c22.811-0.025,51.523-17.807,72.765-43.079c2.821-3.33,4.382-6.854,3.771-8.235
					C472.366,202.858,468.534,205.877,467.155,207.752z M401.331,198.928c1.965-4.043,4.142-8.223,6.549-12.496
					c19.987-35.577,47.333-64.43,61.096-64.444c2.595-0.003,3.899,4.052,3.906,10.994c0.012,12.313-13.775,55.892-71.495,66.448
					C401.387,199.43,401.008,199.536,401.331,198.928z"/>
				
					<radialGradient id="SVGID_6_" cx="450.5527" cy="437.8486" r="245.1719" gradientTransform="matrix(0.9962 0.0868 -0.0868 0.9962 -5.9111 -294.4839)" gradientUnits="userSpaceOnUse">
					<stop  offset="0.0074" style="stop-color:#94B741"/>
					<stop  offset="0.5103" style="stop-color:#86A038"/>
					<stop  offset="1" style="stop-color:#597028"/>
				</radialGradient>
				<path fill-rule="evenodd" clip-rule="evenodd" fill="url(#SVGID_6_)" d="M455.978,96.94c0,0,11.691-14.678,22.45-29.332
					c8.85-12.054,16.053-23.333,26.794-23.345c6.649-0.007,10.097,5.521,10.104,9.229c0.006,7.211-7.857,14.375-21.71,23.289
					c-16.454,10.594-34.639,21.986-34.639,21.986L455.978,96.94z"/>
				
					<radialGradient id="SVGID_7_" cx="450.5498" cy="437.8545" r="245.171" gradientTransform="matrix(0.9962 0.0868 -0.0868 0.9962 -5.9111 -294.4839)" gradientUnits="userSpaceOnUse">
					<stop  offset="0.0074" style="stop-color:#94B741"/>
					<stop  offset="0.5103" style="stop-color:#86A038"/>
					<stop  offset="1" style="stop-color:#597028"/>
				</radialGradient>
				<path fill-rule="evenodd" clip-rule="evenodd" fill="url(#SVGID_7_)" d="M199.519,154.089c0.573-1.181-0.528-3.804-3.03-0.81
					c-1.554,1.841-5.042,4.268-9.228,4.274c-20.969,0.019-28.113-25.214-12.189-57.349c15.916-32.14,51.311-57.155,77.095-57.181
					c44.422,1.84,49.543,41.519,14.895,111.47c-35.214,71.146-101.416,128.857-147.847,128.904
					c-46.427,0.048-55.5-57.587-20.266-128.732c34.054-68.771,97.047-124.983,143.143-128.703c0.215-0.025,2.507-0.389,4.018-0.578
					c4.792-0.614,6.201-1.32,6.199-2.565c-0.002-1.748-9.093-1.546-9.906-1.491C172.968,26.348,90.423,84.153,54.059,154.71
					c-38.057,73.804-11.169,134.717,60.054,134.648c71.223-0.074,159.662-61.174,197.839-134.912
					c34.447-66.508,11.675-117.486-59.544-117.414c-36.585,0.037-82.124,29.334-99.575,63.193c-5.129,9.938-7.36,19.333-7.35,27.68
					c0.028,27.59,21.249,35.634,34.777,35.622C191.35,163.516,197.936,157.342,199.519,154.089z"/>
			</g>
			
				<radialGradient id="SVGID_8_" cx="450.5537" cy="437.8438" r="245.174" gradientTransform="matrix(0.9962 0.0868 -0.0868 0.9962 -5.9111 -294.4839)" gradientUnits="userSpaceOnUse">
				<stop  offset="0.0074" style="stop-color:#94B741"/>
				<stop  offset="0.5103" style="stop-color:#86A038"/>
				<stop  offset="1" style="stop-color:#597028"/>
			</radialGradient>
			<path fill-rule="evenodd" clip-rule="evenodd" fill="url(#SVGID_8_)" d="M477.586,256.002
				c22.814-0.024,51.519-25.357,72.753-50.631l1.577-7.281c-7.191,8.545-22.773,25.599-36.632,36.492
				c-9.134,7.18-13.896,10.077-16.717,10.079c-3.324,0.003-5.011-4.229,0.268-14.467c10.354-20.448,42.566-82.803,47.541-92.495
				c4.975-9.693,5.435-21.084-9.247-21.07c-9.508,0.01-23.755,9.247-30.829,14.638c-0.944,0.718-2.475,2.054-1.838,3.513
				c0.584,1.38,2.801,0.139,4.31-0.603c3.279-1.608,5.007-2.432,6.395-2.434c1.399,0,2.363,0.708,2.363,1.888
				c0,1.171-2.28,5.441-5.207,11.154c-2.929,5.703-31.06,60.414-37.351,72.708c-6.288,12.287-11.393,24.059-11.388,28.994
				C463.59,251.421,466.814,256.015,477.586,256.002z"/>
		</g>
	</g>
</g>
</svg>
